PathFileType	4	(X/Y/Z)	C:\Users\chris\Documents\GitHub\baseballds\vids\pitch5_Sports2D\pitch5_Sports2D_px_person03.trc
DataRate	CameraRate	NumFrames	NumMarkers	Units	OrigDataRate	OrigDataStartFrame	OrigNumFrames
30	30	8	22	m	30	0	149
Frame#	Time	Hip			RHip			RKnee			RAnkle			RBigToe			RSmallToe			RHeel			LHip			LKnee			LAnkle			LBigToe			LSmallToe			LHeel			Neck			Head			Nose			RShoulder			RElbow			RWrist			LShoulder			LElbow			LWrist		
		X1	Y1	Z1	X2	Y2	Z2	X3	Y3	Z3	X4	Y4	Z4	X5	Y5	Z5	X6	Y6	Z6	X7	Y7	Z7	X8	Y8	Z8	X9	Y9	Z9	X10	Y10	Z10	X11	Y11	Z11	X12	Y12	Z12	X13	Y13	Z13	X14	Y14	Z14	X15	Y15	Z15	X16	Y16	Z16	X17	Y17	Z17	X18	Y18	Z18	X19	Y19	Z19	X20	Y20	Z20	X21	Y21	Z21	X22	Y22	Z22
0	0.0	1471.8734455112867	424.8319319285649	0.0	1471.9765136813626	424.80614069768933	0.0	1469.0718357462986	435.16190091692715	0.0	1470.3437165984694	446.9570402392088	0.0	1459.498361268301	446.72512292127635	0.0	1460.9120388115966	448.2160902999896	0.0	1473.055111909076	452.4828336919637	0.0	1471.7703737954516	424.80615977129355	0.0	1476.0113170169157	436.54980286021396	0.0	1477.3347638297946	446.91838797407877	0.0	1466.450722788163	450.95322289488195	0.0	1463.533194480047	449.5653492115279	0.0	1478.61955783636	451.06919192051214	0.0	1467.6452882865603	406.4967343288545	0.0	1467.7869763288124	397.2583073256432	0.0	1463.64910948154	399.6861571595563	0.0	1469.1233520766539	410.4800010701641	0.0	1477.5924746480732	412.7275318291975	0.0	1467.7096997133067	413.4581988928741	0.0	1474.5589904797152	407.7042388934799	0.0	1478.671087416612	407.05997926581966	0.0	1471.796060333604	416.2597318617303	0.0
1	0.03333333333333333	1472.1157609270808	425.1671323053408	0.0	1472.0488022626175	425.1838179421843	0.0	1469.5857770397904	435.8553845953289	0.0	1470.9342882875223	447.7664612578832	0.0	1460.5810118706227	447.91719295101024	0.0	1461.8376219890592	449.1234655734105	0.0	1473.5227724724114	452.8762131236934	0.0	1472.1827070015327	425.1838747253783	0.0	1475.9521044777478	437.12870815145925	0.0	1477.2671163989583	447.79156668458904	0.0	1466.9389963673636	451.69513274144043	0.0	1464.484496572771	450.4219004220256	0.0	1478.6073319952297	451.6197252662002	0.0	1468.3376068401706	406.6300806585544	0.0	1468.2452708844899	397.4078041140468	0.0	1464.4088863721977	400.1801711880171	0.0	1469.5524190691758	410.5670504828965	0.0	1477.1000579081797	413.4569787322422	0.0	1468.2958436374247	415.1568326361917	0.0	1474.720595924376	408.0205297201393	0.0	1478.5738226862327	408.43908466364684	0.0	1472.165707884996	417.6865063267725	0.0
2	0.06666666666666667	1472.3578040980722	425.50207098098946	0.0	1472.1208845350418	425.5613220621034	0.0	1470.0997311744654	436.54858812093704	0.0	1471.5250328240625	448.57573303740605	0.0	1461.663674513282	449.1090107981429	0.0	1462.7631288617463	450.0306104627607	0.0	1473.9903955038935	453.2693833009721	0.0	1472.5947180098888	425.56133181280507	0.0	1475.8927207560403	437.7072660015537	0.0	1477.1993621085135	448.66457831261994	0.0	1467.427116607221	452.43674755976826	0.0	1465.4357025358256	451.27809753458394	0.0	1478.59503747042	452.16997718025004	0.0	1469.0299545538232	406.76336422505517	0.0	1468.7038415366292	397.5571389670843	0.0	1465.1688237897367	400.674097555795	0.0	1469.9815910870266	410.65402401683593	0.0	1476.6074950872478	414.18605646159597	0.0	1468.882073606404	416.8553572737373	0.0	1474.8820882540144	408.33669368620326	0.0	1478.4765441244363	409.8179777398681	0.0	1472.5354096286699	419.1132362529563	0.0
3	0.1	1472.5986094982095	425.83774089908127	0.0	1472.1919974571965	425.93970948279417	0.0	1470.6129595608852	437.2415495107391	0.0	1472.115182244642	449.38504689605804	0.0	1462.744546242126	450.2999334333544	0.0	1463.6866679056197	450.9373906543645	0.0	1474.4570418007838	453.6631748642021	0.0	1473.0052751699122	425.9394379006926	0.0	1475.8331708785245	438.2854456281254	0.0	1477.13181125283	449.5375475361376	0.0	1467.9139210229648	453.17799884386824	0.0	1466.3851496831676	452.13368936143775	0.0	1478.582807193451	452.7205200118875	0.0	1469.7214249634712	406.8983909033428	0.0	1469.1630430954801	397.7076258678808	0.0	1465.928500132986	401.1690839364912	0.0	1470.4096370662012	410.74259151398655	0.0	1476.1143691879188	414.91453657073396	0.0	1469.4672191254306	418.5527590011942	0.0	1475.0435258643793	408.65420202274953	0.0	1478.3795909194414	411.1962086843483	0.0	1472.9047990113252	420.5396263998264	0.0
4	0.13333333333333333	1472.8382937518313	426.1758838577912	0.0	1472.2622823746044	426.3203737183647	0.0	1471.1243800389016	437.93498150714777	0.0	1472.7028975519822	450.19461500712987	0.0	1463.8211916212463	451.4895897766385	0.0	1464.6062118803727	451.8440008446097	0.0	1474.9216974095334	454.05892213466205	0.0	1473.4144351963596	426.3198114155652	0.0	1475.7742246111175	438.86426582300095	0.0	1477.0652390473438	450.41065645762615	0.0	1468.3986713442837	453.91953249144746	0.0	1467.3310787373612	452.98932585362854	0.0	1478.5710577652787	453.2726495399288	0.0	1470.410588732117	407.0369305039431	0.0	1469.6216926916225	397.86100510870335	0.0	1466.6863128341479	401.6661597338702	0.0	1470.834710634281	410.8344910656173	0.0	1475.6212840482028	415.64324501592466	0.0	1470.0494536709302	420.24736660168463	0.0	1475.2053206146786	408.97466547035003	0.0	1478.2833928473558	412.5732738874116	0.0	1473.273054048569	421.9645676667078	0.0
5	0.16666666666666666	1473.0821965619987	426.5149776748159	0.0	1472.3359589974725	426.7008442888201	0.0	1471.636123058995	438.63057593339533	0.0	1473.2890907360438	451.0044921411888	0.0	1464.8990662677593	452.6814931347018	0.0	1465.5283164929951	452.75220211979126	0.0	1475.3876098564433	454.4552081823705	0.0	1473.828405695398	426.70117008403815	0.0	1475.7172627319567	439.44625791932447	0.0	1476.9994710786193	451.2842931424494	0.0	1468.8862916456114	454.6634959319639	0.0	1468.2794025468672	453.8481844057194	0.0	1478.5598869873702	453.82631768844965	0.0	1471.0999175650497	407.1732048962167	0.0	1470.076103706627	398.01396737360847	0.0	1467.4419832852518	402.1617921233625	0.0	1471.259948779158	410.92454324360267	0.0	1475.1311245404486	416.3754760568668	0.0	1470.6317649064774	421.94252843011407	0.0	1475.3680775798994	409.2938573277313	0.0	1478.1869529584221	413.95159574687176	0.0	1473.6407837591564	423.3885876708668	0.0
6	0.2	1473.3398250726386	426.8432908543426	0.0	1472.4202763545572	427.0693833577644	0.0	1472.157790794922	439.3279602956584	0.0	1473.8849378936814	451.81378531288533	0.0	1466.0010195354141	453.88429696674865	0.0	1466.4758055849957	453.66442130831194	0.0	1475.8661360585074	454.8425873181976	0.0	1474.2586559046003	427.07286976364446	0.0	1475.6609534807087	440.0310583876558	0.0	1476.9302120257112	452.15835400471997	0.0	1469.389897031716	455.4107230332255	0.0	1469.2503661351598	454.7130341954035	0.0	1478.5473505934638	454.37487570900703	0.0	1471.8014498114073	407.28728633101395	0.0	1470.5254091592128	398.15139633027593	0.0	1468.2032516109575	402.64411048691545	0.0	1471.7007466866642	410.99410711598824	0.0	1474.646198001891	417.11330688802343	0.0	1471.2291817814853	423.65328081210873	0.0	1475.530852716494	409.59560961863417	0.0	1478.0861846235102	415.33846600782005	0.0	1474.0133749858226	424.8184997689965	0.0
7	0.23333333333333334	1473.6018240246517	427.14642034053696	0.0	1472.507356680819	427.4164139116207	0.0	1472.6965657834937	440.0177134579981	0.0	1474.5068055721933	452.6204382290779	0.0	1467.1421876512125	455.09625485549196	0.0	1467.4581669947074	454.5761420581626	0.0	1476.362070462427	455.2104259999826	0.0	1474.6950818258688	427.4213293864318	0.0	1475.595738939651	440.6049887064086	0.0	1476.8502544446578	453.03056315841354	0.0	1469.9090356683791	456.1517370306517	0.0	1470.2518708728726	455.57277780449454	0.0	1478.5292814442275	454.9059599531741	0.0	1472.5252024828646	407.3710616869502	0.0	1470.9867481633696	398.2616489108333	0.0	1468.9860613502474	403.10869932105777	0.0	1472.1700883620852	411.0344456903853	0.0	1474.156181686275	417.843751779721	0.0	1471.8547420039954	425.39070773488186	0.0	1475.6887562274028	409.87096079941756	0.0	1477.9784781320768	416.73511850865384	0.0	1474.397841436306	426.2643059815523	0.0
